<svg width="100" height="77" viewBox="0 0 100 77" fill="none" xmlns="http://www.w3.org/2000/svg">
<path d="M78.3461 1.39479C84.6052 1.50819 89.8402 3.84355 94.051 8.40086C98.083 12.9549 100.036 18.726 99.9091 25.7141C99.7857 32.523 97.8741 39.2996 94.174 46.0437C90.292 52.9637 85.4393 59.1492 79.616 64.6002C73.6139 70.0479 67.4622 73.8798 61.1608 76.0957L53.4445 57.6734C55.0767 56.4483 57.2535 54.7849 59.975 52.6833C62.5176 50.5785 64.974 48.2929 67.3443 45.8264C69.5325 43.5359 71.1809 41.4149 72.2896 39.4634L71.2167 39.4439C67.64 39.3791 64.3657 37.4378 61.3937 33.6199C58.2429 29.7987 56.7129 25.3796 56.8038 20.3625C56.872 16.5997 58.0945 13.3059 60.4713 10.4811C62.6692 7.65305 65.3939 5.37228 68.6453 3.63878C71.8935 2.08447 75.1271 1.33647 78.3461 1.39479ZM25.2329 0.432507C31.492 0.545908 36.727 2.88126 40.9378 7.43857C44.9698 11.9926 46.9225 17.7637 46.7959 24.7518C46.6725 31.5608 44.7608 38.3373 41.0608 45.0814C37.1787 52.0014 32.326 58.187 26.5028 63.6379C20.5007 69.0856 14.3489 72.9175 8.04759 75.1335L0.331259 56.7111C1.96348 55.486 4.14032 53.8226 6.86176 51.721C9.40437 49.6162 11.8608 47.3306 14.2311 44.8642C16.4193 42.5737 18.0677 40.4526 19.1764 38.5011L18.1034 38.4816C14.5268 38.4168 11.2525 36.4755 8.28048 32.6576C5.12966 28.8364 3.59971 24.4173 3.69061 19.4002C3.75879 15.6374 4.98126 12.3436 7.35802 9.5188C9.55595 6.69077 12.2806 4.41 15.5321 2.6765C18.7803 1.12218 22.0139 0.374187 25.2329 0.432507Z" fill="#213E8C"/>
</svg>
